# xmcd
#
# Track frame offsets: 
#        150
#        25702
#        49370
#        73960
#        103050
#        124800
#        145762
#        164850
#        187162
#
# Disc length: 2800 seconds
#
# Revision: 3
# Processed by: cddbd v1.5.2PL0 Copyright (c) Steve Scherf et al.
# Submitted via: ExactAudioCopy v1.0b3
#
DISCID=8e0aee09
DTITLE=Mike Davis - When Only A Friend Will Do
DYEAR=1992
DGENRE=R&B
TTITLE0=When Only A Friend Will Do
TTITLE1=Slow Motion
TTITLE2=All Alone
TTITLE3=Show Me The Way To Your Heart
TTITLE4=Don't Leave
TTITLE5=Ain't No Stoppin' Us Now
TTITLE6=I'll Never Get Enough Of Your Lovin'
TTITLE7=You Don't Have To Dream About It
TTITLE8=Call Me
EXTD=
EXTT0=
EXTT1=
EXTT2=
EXTT3=
EXTT4=
EXTT5=
EXTT6=
EXTT7=
EXTT8=
PLAYORDER=
